<?xml version="1.0" encoding="UTF-8"?><svg xmlns="http://www.w3.org/2000/svg" xmlns:xlink="http://www.w3.org/1999/xlink" viewBox="0 0 150 150"><defs><style>.e{fill:#c0ac9d;}.f{fill:#e27525;}.g{fill:#e27625;}.h{fill:#e17726;}.i{fill:#233447;}.j{fill:#f5841f;}.k{fill:#cc6228;}.l{fill:#d5bfb2;}.m{fill:url(#d);}.n{fill:#161616;}.o{fill:#763e1a;}</style><linearGradient id="d" x1="21.74" y1="48.55" x2="145.35" y2="109.94" gradientTransform="matrix(1, 0, 0, 1, 0, 0)" gradientUnits="userSpaceOnUse"><stop offset="0" stop-color="#fef8ee"/><stop offset="1" stop-color="#f0d6b6"/></linearGradient></defs><g id="a"/><g id="b"><g id="c"><g><rect class="m" width="150" height="150" rx="28.17" ry="28.17"/><g><polygon class="h" points="127.23 23.67 80.23 58.45 88.97 37.95 127.23 23.67"/><polygon class="g" points="22.88 23.71 61.04 37.95 69.34 58.72 22.88 23.71"/><polygon class="g" points="108.31 97.63 129.09 98.03 121.83 122.69 96.48 115.71 108.31 97.63"/><polygon class="g" points="41.68 97.63 53.48 115.71 28.17 122.69 20.95 98.03 41.68 97.63"/><polygon class="g" points="68.21 53.43 69.06 80.85 43.66 79.69 50.88 68.79 50.97 68.69 68.21 53.43"/><polygon class="g" points="81.53 53.12 99.03 68.69 99.12 68.79 106.34 79.69 80.95 80.85 81.53 53.12"/><polygon class="g" points="54.22 97.71 68.09 108.52 51.98 116.3 54.22 97.71"/><polygon class="g" points="95.78 97.71 97.98 116.3 81.91 108.52 95.78 97.71"/><polygon class="l" points="82.26 107.5 98.57 115.39 83.4 122.6 83.56 117.84 82.26 107.5"/><polygon class="l" points="67.73 107.5 66.49 117.76 66.59 122.6 51.39 115.39 67.73 107.5"/><polygon class="i" points="63.02 84.43 67.28 93.38 52.78 89.13 63.02 84.43"/><polygon class="i" points="86.98 84.43 97.27 89.13 82.72 93.38 86.98 84.43"/><polygon class="k" points="55.33 97.62 52.98 116.89 40.42 98.04 55.33 97.62"/><polygon class="k" points="94.67 97.62 109.59 98.04 96.97 116.89 94.67 97.62"/><polygon class="k" points="106.71 78.6 95.86 89.66 87.49 85.84 83.48 94.26 80.86 79.78 106.71 78.6"/><polygon class="k" points="43.28 78.6 69.14 79.78 66.52 94.26 62.51 85.84 54.18 89.66 43.28 78.6"/><polygon class="f" points="42.55 76.33 54.83 88.79 55.26 101.09 42.55 76.33"/><polygon class="f" points="107.46 76.31 94.73 101.12 95.21 88.79 107.46 76.31"/><polygon class="f" points="68.54 77.09 69.04 80.2 70.26 87.95 69.47 111.75 65.76 92.63 65.76 92.44 68.54 77.09"/><polygon class="f" points="81.45 77.05 84.24 92.44 84.24 92.63 80.52 111.8 80.37 107.01 79.79 87.81 81.45 77.05"/><polygon class="j" points="96.3 88.3 95.89 98.99 82.93 109.08 80.32 107.23 83.25 92.11 96.3 88.3"/><polygon class="j" points="53.74 88.3 66.75 92.11 69.68 107.23 67.07 109.08 54.11 98.98 53.74 88.3"/><polygon class="e" points="48.91 113.03 65.48 120.89 65.41 117.53 66.8 116.32 83.2 116.32 84.64 117.53 84.53 120.88 101 113.05 92.98 119.68 83.29 126.33 66.66 126.33 56.98 119.65 48.91 113.03"/><polygon class="n" points="81.08 106.45 83.42 108.11 84.79 119.07 82.81 117.39 67.2 117.39 65.25 119.1 66.58 108.11 68.92 106.45 81.08 106.45"/><polygon class="o" points="124.13 24.63 129.77 41.56 126.25 58.67 128.75 60.61 125.36 63.2 127.91 65.17 124.53 68.24 126.61 69.75 121.1 76.18 98.52 69.6 98.33 69.5 82.06 55.77 124.13 24.63"/><polygon class="o" points="25.87 24.63 67.94 55.77 51.67 69.5 51.48 69.6 28.9 76.18 23.39 69.75 25.47 68.25 22.09 65.17 24.64 63.2 21.19 60.6 23.79 58.66 20.23 41.56 25.87 24.63"/><polygon class="j" points="97.42 68.16 121.34 75.13 129.11 99.08 108.61 99.08 94.48 99.26 104.75 79.23 97.42 68.16"/><polygon class="j" points="52.58 68.16 45.24 79.23 55.52 99.26 41.4 99.08 20.93 99.08 28.66 75.13 52.58 68.16"/><polygon class="j" points="90.14 37.84 83.45 55.91 82.03 80.32 81.48 87.98 81.44 107.53 68.56 107.53 68.52 88.01 67.97 80.32 66.55 55.91 59.86 37.84 90.14 37.84"/></g></g></g></g></svg>