<?xml version="1.0" encoding="UTF-8"?><svg xmlns="http://www.w3.org/2000/svg" viewBox="0 0 149.4 149.39"><defs><style>.d{fill:#3b98fb;}.e{fill:#fefefe;}</style></defs><g id="a"/><g id="b"><g id="c"><g><path class="d" d="M0,122.07V26.8C.87,17.72,4.72,10.51,12.12,4.83,16.94,1.13,22.53,1.45,27.79,0H121.08c9.31,.69,16.89,4.25,22.81,11.89,4.41,5.69,5.34,12.09,5.38,18.64,.21,29.25,.03,58.51,.13,87.76,.04,11.52-4.73,20.27-14.07,26.82-5.19,3.64-11.17,4.14-17.05,4.18-29.25,.19-58.51,.08-87.76,.09-10.59,0-19.02-3.96-25.62-12.49-3.52-4.55-3.32-9.87-4.9-14.81Z"/><path class="e" d="M32.67,68.64c.9,.74,1.98,1.49,2.9,2.39,5.09,4.96,10.23,9.88,15.18,14.98,1.94,1.99,3.18,2.05,5.16,0,4.7-4.88,9.87-9.32,14.42-14.32,3.19-3.51,5.32-3.07,8.32,.16,4.61,4.96,9.7,9.46,14.45,14.3,1.78,1.81,2.98,1.91,4.81,.03,4.96-5.09,10.22-9.89,15.14-15.01,2.43-2.52,4.16-2.94,6.88-.22,5.69,5.68,5.85,5.54-.04,11.32-6.84,6.72-13.79,13.33-20.48,20.2-2.74,2.81-4.7,3.35-7.63,.15-4.35-4.74-9.39-8.86-13.72-13.62-2.9-3.19-4.7-2.78-7.42,.16-4.37,4.72-9.33,8.9-13.74,13.6-2.74,2.93-4.61,2.62-7.27-.09-7.29-7.43-14.68-14.79-22.33-21.85-3.4-3.14-3.7-5.48,.06-8.25,1.69-1.24,2.72-3.36,5.28-3.91Z"/><path class="e" d="M106.57,59.26c-1.42,3.1-4.3,5.21-6.91,7.36-2.33,1.93-3.37-1.14-4.62-2.26-12.53-11.21-29.41-11.32-41.53,.53-5.6,5.47-6.72-.98-9.46-2.76-3.7-2.4-1.38-4.53,.79-6.6,16.56-15.91,42.83-15.94,59.12-.01,1.04,1.02,2.37,1.86,2.61,3.75Z"/></g></g></g></svg>